<svg className="c-logo-svg" focusable="false" viewBox="200 -10 400 800" xmlns="http://www.w3.org/2000/svg">
    <path fill="none" opacity="1.000000" stroke="none" 
        d="M426.000000,0.999997 
            C550.965698,1.000000 675.931458,1.000000 800.948608,1.000000 
            C800.948608,267.559265 800.948608,534.118530 800.948608,801.000000 
            C676.308594,801.000000 551.616943,801.000000 426.144653,800.675781 
            C431.021393,799.239746 436.663605,798.043030 442.338501,797.029114 
            C499.252808,786.859802 539.457825,755.738892 561.338196,701.855225 
            C572.846741,673.513672 576.789612,643.726501 576.953125,613.374634 
            C577.147949,577.214050 577.010620,541.051697 577.017151,504.890076 
            C577.017456,503.315002 577.017212,501.739960 577.017212,500.329956 
            C538.103821,500.329956 500.005096,500.329956 461.557312,500.329956 
            C461.557312,502.643646 461.557281,504.628510 461.557281,506.613342 
            C461.557068,542.774963 461.836578,578.940063 461.390778,615.096130 
            C461.252197,626.335510 460.327759,637.836304 457.693359,648.716187
            C452.524200,670.064453 439.225433,684.496765 416.812805,687.955322 
            C406.913452,689.482849 396.494202,689.847168 386.578033,688.606079 
            C365.122925,685.920654 350.912933,673.511719 344.026581,652.893127 
            C340.123596,641.207092 339.178497,629.118469 339.153473,616.925781
            C339.095581,588.763184 339.134216,560.600403 339.134186,532.437683
            C339.134033,417.120453 339.030273,301.803009 339.298706,186.486420
            C339.324799,175.271210 340.568268,163.805298 343.148163,152.905823 
            C347.621399,134.007141 359.073608,120.498970 378.369507,114.988113 
            C392.941010,110.826546 407.681549,110.827957 422.254364,114.958969 
            C437.242249,119.207634 447.815460,128.681595 454.077301,143.016708 
            C458.613983,153.402359 460.879456,164.312195 461.014954,175.529556 
            C461.387390,206.351990 461.402008,237.178741 461.556183,268.003784 
            C461.565796,269.924591 461.557434,271.845459 461.557434,273.885742 
            C500.401550,273.885742 538.474365,273.885742 577.016663,273.885742 
            C577.016663,272.501984 577.016968,271.367981 577.016541,270.233948 
            C577.006470,243.237778 577.178589,216.239960 576.933838,189.245911 
            C576.698853,163.330429 573.909729,137.705170 565.941406,112.897408 
            C552.083984,69.754837 526.032654,36.967007 484.342773,17.639179 
            C466.952759,9.576989 448.467896,5.546929 429.606415,2.896598 
            C428.340424,2.718707 427.199249,1.652853 426.000000,0.999997 z"/>
    <path fill="none" opacity="1.000000" stroke="none" 
        d="M368.000000,801.000000 
            C245.700592,801.000000 123.401176,801.000000 1.050881,801.000000 
            C1.050881,534.441223 1.050881,267.882385 1.050881,1.000000 
            C123.024712,1.000000 245.049713,1.000000 367.854736,1.324520 
            C361.179199,3.099436 353.716217,4.512807 346.269287,6.006246 
            C299.070038,15.471786 263.246796,40.674973 240.363556,83.313774 
            C223.430695,114.865105 217.204926,149.179321 217.132568,184.509155 
            C216.841125,326.788513 216.986038,469.068817 217.019699,611.348755 
            C217.025955,637.788635 219.949966,663.858887 227.985870,689.172852 
            C239.746231,726.219116 260.954559,756.035950 294.592987,776.463501 
            C315.940247,789.426941 339.382568,795.671326 363.812469,799.080566 
            C365.269226,799.283813 366.606903,800.340454 368.000000,801.000000 z"/>
    <path fill="#FF0000" opacity="1.000000" stroke="none" 
        d="M368.468658,801.000000 
            C366.606903,800.340454 365.269226,799.283813 363.812469,799.080566 
            C339.382568,795.671326 315.940247,789.426941 294.592987,776.463501 
            C260.954559,756.035950 239.746231,726.219116 227.985870,689.172852 
            C219.949966,663.858887 217.025955,637.788635 217.019699,611.348755 
            C216.986038,469.068817 216.841125,326.788513 217.132568,184.509155 
            C217.204926,149.179321 223.430695,114.865105 240.363556,83.313774 
            C263.246796,40.674973 299.070038,15.471786 346.269287,6.006246 
            C353.716217,4.512807 361.179199,3.099436 368.317383,1.324520 
            C387.020905,1.000000 406.041779,1.000000 425.531342,0.999997 
            C427.199249,1.652853 428.340424,2.718707 429.606415,2.896598 
            C448.467896,5.546929 466.952759,9.576989 484.342773,17.639179 
            C526.032654,36.967007 552.083984,69.754837 565.941406,112.897408 
            C573.909729,137.705170 576.698853,163.330429 576.933838,189.245911 
            C577.178589,216.239960 577.006470,243.237778 577.016541,270.233948 
            C577.016968,271.367981 577.016663,272.501984 577.016663,273.885742 
            C538.474365,273.885742 500.401550,273.885742 461.557434,273.885742 
            C461.557434,271.845459 461.565796,269.924591 461.556183,268.003784 
            C461.402008,237.178741 461.387390,206.351990 461.014954,175.529556 
            C460.879456,164.312195 458.613983,153.402359 454.077301,143.016708 
            C447.815460,128.681595 437.242249,119.207634 422.254364,114.958969 
            C407.681549,110.827957 392.941010,110.826546 378.369507,114.988113 
            C359.073608,120.498970 347.621399,134.007141 343.148163,152.905823 
            C340.568268,163.805298 339.324799,175.271210 339.298706,186.486420 
            C339.030273,301.803009 339.134033,417.120453 339.134186,532.437683 
            C339.134216,560.600403 339.095581,588.763184 339.153473,616.925781 
            C339.178497,629.118469 340.123596,641.207092 344.026581,652.893127 
            C350.912933,673.511719 365.122925,685.920654 386.578033,688.606079 
            C396.494202,689.847168 406.913452,689.482849 416.812805,687.955322 
            C439.225433,684.496765 452.524200,670.064453 457.693359,648.716187 
            C460.327759,637.836304 461.252197,626.335510 461.390778,615.096130 
            C461.836578,578.940063 461.557068,542.774963 461.557281,506.613342 
            C461.557281,504.628510 461.557312,502.643646 461.557312,500.329956 
            C500.005096,500.329956 538.103821,500.329956 577.017212,500.329956 
            C577.017212,501.739960 577.017456,503.315002 577.017151,504.890076 
            C577.010620,541.051697 577.147949,577.214050 576.953125,613.374634 
            C576.789612,643.726501 572.846741,673.513672 561.338196,701.855225 
            C539.457825,755.738892 499.252808,786.859802 442.338501,797.029114 
            C436.663605,798.043030 431.021393,799.239746 425.682007,800.675781 
            C406.979095,801.000000 387.958221,801.000000 368.468658,801.000000 z"/>
</svg>