<svg className="c-logo-svg" xmlns="http://www.w3.org/2000/svg" viewBox="76 60 560 126">
	<path fill="none" opacity="1.000000" stroke="none" 
		d="M502.000000,225.000000 
			C334.666656,225.000000 167.833328,225.000000 1.000000,225.000000 
			C1.000000,150.333328 1.000000,75.666664 1.000000,1.000000 
			C234.000000,1.000000 467.000000,1.000000 700.000000,1.000000 
			C700.000000,75.666664 700.000000,150.333328 700.000000,225.000000 
			C634.166687,225.000000 568.333313,225.000000 502.000000,225.000000 
		M153.609512,124.842484 
			C153.623245,132.816513 153.044266,140.847610 153.805084,148.749710 
			C154.697617,158.019852 159.394974,163.336792 168.649231,164.230087 
			C183.460251,165.659805 197.739243,163.050507 208.522415,151.679657 
			C211.734772,148.292252 214.484573,143.041046 214.719910,138.502426 
			C215.735809,118.910194 215.938904,99.266182 216.007416,79.639511 
			C216.032410,72.479599 212.028107,67.110741 205.819016,63.531624 
			C197.483261,58.726631 188.359436,58.105080 179.205063,59.482258 
			C161.604172,62.130123 154.499802,70.606796 154.178986,88.461517 
			C153.966736,100.274361 153.818970,112.088364 153.609512,124.842484 
		M111.718697,163.402771 
			C101.249756,168.260010 97.460762,165.925217 97.505676,154.549286 
			C97.538559,146.219940 97.716064,137.891266 97.777641,129.561905 
			C97.881096,115.568489 97.861610,101.573616 98.057625,87.581657 
			C98.157082,80.481483 102.268890,76.246735 108.621483,76.213524 
			C115.303185,76.178589 118.110954,79.399918 118.220619,87.335388 
			C118.277451,91.447777 118.230621,95.561600 118.230621,100.084221 
			C120.875908,99.934845 123.012367,99.909897 125.126389,99.679245 
			C138.644714,98.204323 138.560654,98.195374 137.555176,84.182045 
			C136.952927,75.788422 134.537125,68.186119 126.937531,63.811516 
			C115.481697,57.217098 103.255432,56.931118 91.546715,62.783009 
			C81.158287,67.975029 78.041801,77.970413 77.953857,88.807861 
			C77.755150,113.295357 77.839577,137.785812 77.951103,162.274399 
			C77.966850,165.731857 78.395348,169.290100 79.299011,172.620926 
			C81.671669,181.366287 88.441765,186.016479 97.410835,184.393494 
			C103.554001,183.281876 109.803192,181.544113 115.396812,178.831924 
			C133.110382,170.243118 141.533966,150.225922 135.932907,131.096527 
			C129.960159,132.085144 123.961533,133.078033 117.250992,134.188766 
			C117.250992,140.773636 117.808571,146.990829 117.035500,153.037903 
			C116.593292,156.496948 113.986092,159.679214 111.718697,163.402771 
		M601.781494,140.057571 
			C606.080322,153.167862 610.358765,166.284943 614.708557,179.378326 
			C615.160400,180.738449 615.722717,182.663315 616.766235,183.126389 
			C622.861267,185.831177 629.115051,188.178192 635.699402,190.798935 
			C635.572205,189.547913 635.595825,189.208282 635.498657,188.907745 
			C628.488708,167.239243 621.398926,145.595993 614.553955,123.875565 
			C613.830261,121.579185 613.881958,118.596848 614.689270,116.329918 
			C620.767517,99.261147 627.130859,82.293945 633.384827,65.287560 
			C633.867554,63.974968 634.195679,62.605522 634.617004,61.190926 
			C616.266357,59.393898 616.266235,59.393845 610.352173,75.779938 
			C610.013489,76.718292 609.684082,77.659966 609.346069,78.598564 
			C607.069275,84.922371 604.791260,91.245735 602.077209,98.780792 
			C600.930359,96.058495 600.269897,94.624672 599.714661,93.151199 
			C596.080078,83.505684 592.509033,73.835907 588.799377,64.219521 
			C588.319336,62.975197 587.199036,61.072460 586.310608,61.035656 
			C579.754944,60.764038 573.182861,60.888733 566.135620,60.888733 
			C571.755127,74.352814 576.340942,87.628525 582.726685,99.973175 
			C588.675476,111.473198 588.714600,121.541847 582.634583,132.990631 
			C576.600159,144.353561 572.390808,156.685730 567.122925,169.206329 
			C573.699097,170.859207 579.729736,172.374985 585.981873,173.946411 
			C586.752563,172.115097 587.420227,170.618225 588.017883,169.093918 
			C591.719727,159.653061 595.373291,150.192902 599.165466,140.788574 
			C599.438232,140.112198 600.685242,139.828674 601.781494,140.057571 
		M286.039886,63.257477 
			C269.658020,57.669128 252.863617,61.183952 236.045944,60.038044 
			C235.500504,92.205307 234.971329,123.413086 234.435333,155.022293 
			C241.699707,154.193314 248.226227,153.448547 255.626892,152.604019 
			C255.626892,139.317703 255.626892,126.414635 255.626892,113.373161 
			C257.504303,113.193687 258.470886,113.070160 259.441376,113.013184 
			C273.780396,112.171326 275.829926,114.113281 275.771606,128.270798 
			C275.746948,134.260818 275.647797,140.264648 276.036774,146.232605 
			C276.137756,147.781937 277.946655,150.497787 278.974640,150.499481 
			C285.197021,150.509720 291.420441,149.888275 296.321930,149.565094 
			C296.321930,141.126144 296.177094,133.383789 296.358582,125.649109 
			C296.585602,115.972389 295.258118,107.338890 283.348816,104.678986 
			C300.509003,94.425743 301.909485,72.361534 286.039886,63.257477 
		M337.044617,125.461777 
			C337.044617,120.028740 337.044617,114.595711 337.044617,108.467117 
			C346.879700,108.467117 355.943390,108.467117 365.098694,108.467117 
			C365.098694,103.961014 365.098694,100.183113 365.098694,95.932632 
			C355.781219,95.932632 346.698700,95.932632 337.404297,95.932632 
			C337.404297,88.072563 337.404297,80.688087 337.404297,72.685242 
			C349.250244,72.685242 360.799133,72.685242 372.305908,72.685242 
			C372.305908,68.180206 372.305908,64.303864 372.305908,60.532814 
			C353.619141,60.532814 335.388214,60.532814 316.597931,60.532814 
			C316.597931,90.110092 316.597931,119.307823 316.597931,148.072433 
			C335.361053,148.072433 353.891876,148.072433 372.629852,148.072433 
			C372.629852,143.594208 372.629852,139.862411 372.629852,135.707336 
			C360.717163,135.707336 349.125122,135.707336 337.040436,135.707336 
			C337.040436,132.340912 337.040436,129.392090 337.044617,125.461777 
		M390.158905,107.499519 
			C390.158905,121.216080 390.158905,134.932648 390.158905,148.959732 
			C398.055725,148.959732 404.605743,148.959732 411.368164,148.959732 
			C411.368164,136.017746 411.368164,123.459061 411.368164,110.931793 
			C420.292725,110.931793 428.848999,110.931793 437.718292,110.931793 
			C437.498749,106.582840 437.300842,102.662842 437.066162,98.013458 
			C428.185883,98.013458 419.768066,98.013458 411.027557,98.013458 
			C411.027557,89.357597 411.027557,81.456734 411.027557,73.027405 
			C422.029022,73.027405 432.908356,73.027405 443.673523,73.027405 
			C443.673523,68.465408 443.673523,64.438744 443.673523,60.433853 
			C425.616333,60.433853 408.041443,60.433853 390.152039,60.433853 
			C390.152039,75.973442 390.152039,91.236488 390.158905,107.499519 
		M515.745911,147.977432 
			C514.429749,146.945953 513.212769,145.196533 511.781342,144.998703 
			C501.942535,143.638641 492.058868,142.603119 481.808075,141.419083 
			C481.124268,114.166336 480.450623,87.319748 479.778473,60.531311 
			C472.713043,60.531311 466.330505,60.531311 459.503479,60.531311 
			C460.085876,91.453552 460.661072,121.991631 461.240509,152.754944 
			C479.646088,155.010635 497.552277,157.205109 515.786438,159.439789 
			C515.786438,155.473862 515.786438,152.180573 515.745911,147.977432 
		M530.922363,137.556503 
			C530.922363,145.533249 530.922363,153.509995 530.922363,161.827057 
			C538.191589,163.275986 544.823425,164.597855 551.967651,166.021866 
			C551.166565,130.760437 550.374695,95.906578 549.578430,60.858452 
			C542.455383,60.858452 535.911133,60.858452 529.043091,60.858452 
			C529.669312,86.356438 530.285950,111.466637 530.922363,137.556503 z"/>
	<path fill="#FB0000" opacity="1.000000" stroke="none" 
		d="M153.625931,124.372162 
			C153.818970,112.088364 153.966736,100.274361 154.178986,88.461517 
			C154.499802,70.606796 161.604172,62.130123 179.205063,59.482258 
			C188.359436,58.105080 197.483261,58.726631 205.819016,63.531624 
			C212.028107,67.110741 216.032410,72.479599 216.007416,79.639511 
			C215.938904,99.266182 215.735809,118.910194 214.719910,138.502426 
			C214.484573,143.041046 211.734772,148.292252 208.522415,151.679657 
			C197.739243,163.050507 183.460251,165.659805 168.649231,164.230087 
			C159.394974,163.336792 154.697617,158.019852 153.805084,148.749710 
			C153.044266,140.847610 153.623245,132.816513 153.625931,124.372162 
		M195.174332,119.514328 
			C195.442032,107.536575 195.825684,95.559853 195.933075,83.580666 
			C195.995514,76.614044 193.061157,73.773148 186.361252,73.598724 
			C179.182861,73.411842 175.288864,76.570366 174.883606,83.118210 
			C174.616486,87.434242 174.545303,91.764420 174.466125,96.089714 
			C174.195068,110.896927 173.936539,125.704460 173.725571,140.512619 
			C173.671219,144.328125 174.132980,147.957565 178.757004,149.075851 
			C187.290695,151.139618 194.614853,145.720627 194.927612,136.981461 
			C195.123962,131.495132 195.085419,126.000389 195.174332,119.514328 z"/>
	<path fill="#FB0000" opacity="1.000000" stroke="none" 
		d="M112.036171,163.194427 
			C113.986092,159.679214 116.593292,156.496948 117.035500,153.037903 
			C117.808571,146.990829 117.250992,140.773636 117.250992,134.188766 
			C123.961533,133.078033 129.960159,132.085144 135.932907,131.096527 
			C141.533966,150.225922 133.110382,170.243118 115.396812,178.831924 
			C109.803192,181.544113 103.554001,183.281876 97.410835,184.393494 
			C88.441765,186.016479 81.671669,181.366287 79.299011,172.620926 
			C78.395348,169.290100 77.966850,165.731857 77.951103,162.274399 
			C77.839577,137.785812 77.755150,113.295357 77.953857,88.807861 
			C78.041801,77.970413 81.158287,67.975029 91.546715,62.783009 
			C103.255432,56.931118 115.481697,57.217098 126.937531,63.811516 
			C134.537125,68.186119 136.952927,75.788422 137.555176,84.182045 
			C138.560654,98.195374 138.644714,98.204323 125.126389,99.679245 
			C123.012367,99.909897 120.875908,99.934845 118.230621,100.084221 
			C118.230621,95.561600 118.277451,91.447777 118.220619,87.335388 
			C118.110954,79.399918 115.303185,76.178589 108.621483,76.213524 
			C102.268890,76.246735 98.157082,80.481483 98.057625,87.581657 
			C97.861610,101.573616 97.881096,115.568489 97.777641,129.561905 
			C97.716064,137.891266 97.538559,146.219940 97.505676,154.549286 
			C97.460762,165.925217 101.249756,168.260010 112.036171,163.194427 z"/>
	<path fill="#FC0000" opacity="1.000000" stroke="none" 
		d="M601.630371,139.710022 
			C600.685242,139.828674 599.438232,140.112198 599.165466,140.788574 
			C595.373291,150.192902 591.719727,159.653061 588.017883,169.093918 
			C587.420227,170.618225 586.752563,172.115097 585.981873,173.946411 
			C579.729736,172.374985 573.699097,170.859207 567.122925,169.206329 
			C572.390808,156.685730 576.600159,144.353561 582.634583,132.990631 
			C588.714600,121.541847 588.675476,111.473198 582.726685,99.973175 
			C576.340942,87.628525 571.755127,74.352814 566.135620,60.888733 
			C573.182861,60.888733 579.754944,60.764038 586.310608,61.035656 
			C587.199036,61.072460 588.319336,62.975197 588.799377,64.219521 
			C592.509033,73.835907 596.080078,83.505684 599.714661,93.151199 
			C600.269897,94.624672 600.930359,96.058495 602.077209,98.780792 
			C604.791260,91.245735 607.069275,84.922371 609.346069,78.598564 
			C609.684082,77.659966 610.013489,76.718292 610.352173,75.779938 
			C616.266235,59.393845 616.266357,59.393898 634.617004,61.190926 
			C634.195679,62.605522 633.867554,63.974968 633.384827,65.287560 
			C627.130859,82.293945 620.767517,99.261147 614.689270,116.329918 
			C613.881958,118.596848 613.830261,121.579185 614.553955,123.875565 
			C621.398926,145.595993 628.488708,167.239243 635.498657,188.907745 
			C635.595825,189.208282 635.572205,189.547913 635.699402,190.798935 
			C629.115051,188.178192 622.861267,185.831177 616.766235,183.126389 
			C615.722717,182.663315 615.160400,180.738449 614.708557,179.378326 
			C610.358765,166.284943 606.080322,153.167862 601.630371,139.710022 z"/>
	<path fill="#FC0000" opacity="1.000000" stroke="none" 
		d="M286.371887,63.443642 
			C301.909485,72.361534 300.509003,94.425743 283.348816,104.678986 
			C295.258118,107.338890 296.585602,115.972389 296.358582,125.649109 
			C296.177094,133.383789 296.321930,141.126144 296.321930,149.565094 
			C291.420441,149.888275 285.197021,150.509720 278.974640,150.499481 
			C277.946655,150.497787 276.137756,147.781937 276.036774,146.232605 
			C275.647797,140.264648 275.746948,134.260818 275.771606,128.270798 
			C275.829926,114.113281 273.780396,112.171326 259.441376,113.013184 
			C258.470886,113.070160 257.504303,113.193687 255.626892,113.373161 
			C255.626892,126.414635 255.626892,139.317703 255.626892,152.604019 
			C248.226227,153.448547 241.699707,154.193314 234.435333,155.022293 
			C234.971329,123.413086 235.500504,92.205307 236.045944,60.038044 
			C252.863617,61.183952 269.658020,57.669128 286.371887,63.443642 
		M259.902466,73.493736 
			C258.743500,74.289062 256.604858,75.052650 256.577911,75.884666 
			C256.322327,83.774933 256.425629,91.676834 256.425629,100.343689 
			C260.885986,99.749458 265.143585,99.473183 269.258575,98.556618 
			C273.870300,97.529404 275.932007,94.305611 276.102325,89.496834 
			C276.616028,74.990929 275.285828,73.512825 259.902466,73.493736 z"/>
	<path fill="#FA0000" opacity="1.000000" stroke="none" 
		d="M337.042542,125.952522 
			C337.040436,129.392090 337.040436,132.340912 337.040436,135.707336 
			C349.125122,135.707336 360.717163,135.707336 372.629852,135.707336 
			C372.629852,139.862411 372.629852,143.594208 372.629852,148.072433 
			C353.891876,148.072433 335.361053,148.072433 316.597931,148.072433 
			C316.597931,119.307823 316.597931,90.110092 316.597931,60.532814 
			C335.388214,60.532814 353.619141,60.532814 372.305908,60.532814 
			C372.305908,64.303864 372.305908,68.180206 372.305908,72.685242 
			C360.799133,72.685242 349.250244,72.685242 337.404297,72.685242 
			C337.404297,80.688087 337.404297,88.072563 337.404297,95.932632 
			C346.698700,95.932632 355.781219,95.932632 365.098694,95.932632 
			C365.098694,100.183113 365.098694,103.961014 365.098694,108.467117 
			C355.943390,108.467117 346.879700,108.467117 337.044617,108.467117 
			C337.044617,114.595711 337.044617,120.028740 337.042542,125.952522 z"/>
	<path fill="#FA0000" opacity="1.000000" stroke="none" 
		d="M390.155457,106.999527 
			C390.152039,91.236488 390.152039,75.973442 390.152039,60.433853 
			C408.041443,60.433853 425.616333,60.433853 443.673523,60.433853 
			C443.673523,64.438744 443.673523,68.465408 443.673523,73.027405 
			C432.908356,73.027405 422.029022,73.027405 411.027557,73.027405 
			C411.027557,81.456734 411.027557,89.357597 411.027557,98.013458 
			C419.768066,98.013458 428.185883,98.013458 437.066162,98.013458 
			C437.300842,102.662842 437.498749,106.582840 437.718292,110.931793 
			C428.848999,110.931793 420.292725,110.931793 411.368164,110.931793 
			C411.368164,123.459061 411.368164,136.017746 411.368164,148.959732 
			C404.605743,148.959732 398.055725,148.959732 390.158905,148.959732 
			C390.158905,134.932648 390.158905,121.216080 390.155457,106.999527 z"/>
	<path fill="#FB0000" opacity="1.000000" stroke="none" 
		d="M515.766174,148.432373 
			C515.786438,152.180573 515.786438,155.473862 515.786438,159.439789 
			C497.552277,157.205109 479.646088,155.010635 461.240509,152.754944 
			C460.661072,121.991631 460.085876,91.453552 459.503479,60.531311 
			C466.330505,60.531311 472.713043,60.531311 479.778473,60.531311 
			C480.450623,87.319748 481.124268,114.166336 481.808075,141.419083 
			C492.058868,142.603119 501.942535,143.638641 511.781342,144.998703 
			C513.212769,145.196533 514.429749,146.945953 515.766174,148.432373 z"/>
	<path fill="#FA0000" opacity="1.000000" stroke="none" 
		d="M530.912476,137.066681 
			C530.285950,111.466637 529.669312,86.356438 529.043091,60.858452 
			C535.911133,60.858452 542.455383,60.858452 549.578430,60.858452 
			C550.374695,95.906578 551.166565,130.760437 551.967651,166.021866 
			C544.823425,164.597855 538.191589,163.275986 530.922363,161.827057 
			C530.922363,153.509995 530.922363,145.533249 530.912476,137.066681 z"/>
	<path fill="none" opacity="1.000000" stroke="none" 
		d="M195.163300,120.011871 
			C195.085419,126.000389 195.123962,131.495132 194.927612,136.981461 
			C194.614853,145.720627 187.290695,151.139618 178.757004,149.075851 
			C174.132980,147.957565 173.671219,144.328125 173.725571,140.512619 
			C173.936539,125.704460 174.195068,110.896927 174.466125,96.089714 
			C174.545303,91.764420 174.616486,87.434242 174.883606,83.118210 
			C175.288864,76.570366 179.182861,73.411842 186.361252,73.598724 
			C193.061157,73.773148 195.995514,76.614044 195.933075,83.580666 
			C195.825684,95.559853 195.442032,107.536575 195.163300,120.011871 z"/>
	<path fill="none" opacity="1.000000" stroke="none" 
		d="M260.337189,73.491928 
			C275.285828,73.512825 276.616028,74.990929 276.102325,89.496834 
			C275.932007,94.305611 273.870300,97.529404 269.258575,98.556618 
			C265.143585,99.473183 260.885986,99.749458 256.425629,100.343689 
			C256.425629,91.676834 256.322327,83.774933 256.577911,75.884666 
			C256.604858,75.052650 258.743500,74.289062 260.337189,73.491928 z"/>
</svg>