<svg xmlns="http://www.w3.org/2000/svg" fill="none" role="img" viewBox="0 0 16 16" width="16" height="16" data-icon="PauseSmall" aria-hidden="true">
    <path fill-rule="evenodd" clip-rule="evenodd" d="M3.5 2C3.22386 2 3 2.22386 3 2.5V13.5C3 13.7761 3.22386 14 3.5 14H6.5C6.77614 14 7 13.7761 7 13.5V2.5C7 2.22386 6.77614 2 6.5 2H3.5ZM9.5 2C9.22386 2 9 2.22386 9 2.5V13.5C9 13.7761 9.22386 14 9.5 14H12.5C12.7761 14 13 13.7761 13 13.5V2.5C13 2.22386 12.7761 2 12.5 2H9.5Z" fill="currentColor"></path>
</svg>